<svg xmlns="http://www.w3.org/2000/svg" version="1.1" xmlns:xlink="http://www.w3.org/1999/xlink" xmlns:svgjs="http://svgjs.dev/svgjs" width="2000" height="202" viewBox="0 0 2000 202"><g transform="matrix(1,0,0,1,-1.2121212121212466,0.3694415153045014)"><svg viewBox="0 0 396 40" data-background-color="#ffffff" preserveAspectRatio="xMidYMid meet" height="202" width="2000" xmlns="http://www.w3.org/2000/svg" xmlns:xlink="http://www.w3.org/1999/xlink"><g id="tight-bounds" transform="matrix(1,0,0,1,0.2400000000000091,-0.07315673570386139)"><svg viewBox="0 0 395.52 40.14631347140772" height="40.14631347140772" width="395.52"><g><svg viewBox="0 0 395.52 40.14631347140772" height="40.14631347140772" width="395.52"><g><svg viewBox="0 0 446.4510509460814 45.31594822239281" height="40.14631347140772" width="395.52"><g><rect width="2.9570470164645073" height="32.95407233249259" x="403.2609607760851" y="6.180937944950109" fill="#f9d1d1" opacity="1" stroke-width="0" stroke="transparent" fill-opacity="1" class="rect-qz-0" data-fill-palette-color="primary" rx="1%" id="qz-0" data-palette-color="#f9d1d1"></rect></g><g transform="matrix(1,0,0,1,0,6.262913249259789)"><svg viewBox="0 0 395.52 32.790121723873234" height="32.790121723873234" width="395.52"><g id="textblocktransform"><svg viewBox="0 0 395.52 32.790121723873234" height="32.790121723873234" width="395.52" id="textblock"><g><svg viewBox="0 0 395.52 32.790121723873234" height="32.790121723873234" width="395.52"><g transform="matrix(1,0,0,1,0,0)"><svg width="395.52" viewBox="1.4 -36.8 459.91999999999996 37.8" height="32.790121723873234" data-palette-color="#f9d1d1"><g class="wordmark-text-0" data-fill-palette-color="primary" id="text-0"><path d="M17.7-12.05L11.65-12.05 11.65-3.25 17.6-2.45 17.55 0 1.7 0 1.4-1.6Q3.2-2.55 5.55-3.35L5.55-3.35 5.55-29.85 1.95-30.2 2-32.7 17.05-33.1Q22.5-33.1 25.98-30.1 29.45-27.1 29.45-22.5L29.45-22.5Q29.45-18.1 26.13-15.1 22.8-12.1 17.7-12.05L17.7-12.05ZM19.5-29.7L11.65-28.95 11.65-15.95Q14-15.55 16.2-15.55L16.2-15.55Q19.6-15.55 21.3-17.6 23-19.65 23-22.65L23-22.65Q23-24.9 22.08-26.88 21.15-28.85 19.5-29.7L19.5-29.7ZM52.3-23.05L52.3-23.05Q52.4-18.75 50.95-14.25L50.95-14.25 47.7-14.25 46.9-19.85Q43.5-17.6 41-14.45L41-14.45 41-3.75Q44.75-3.25 46.2-2.4L46.2-2.4 46 0 31.65 0 31.45-1.7Q33.05-2.5 35.15-3.15L35.15-3.15 35.15-20.35 31.4-20.4 30.9-22.8Q34.35-24.2 38.75-24.45L38.75-24.45 41-22.45 41-18.2 46.1-23.75Q47.3-24.25 48.65-24.25L48.65-24.25Q50.8-24.25 52.3-23.05ZM77.8-4.2L78.4-2 72.84 0.8Q71.9 0.7 70.65-0.33 69.4-1.35 68.75-2.75L68.75-2.75 63.25 0.7 61.9 0.8Q58.85 0.8 56.87-1 54.9-2.8 54.9-5.35L54.9-5.35Q54.9-8.95 58.6-10.9L58.6-10.9 68.25-11.15 68.25-15.95Q68.25-19.95 65.84-21.2L65.84-21.2Q63.2-21.1 61.15-20.4L61.15-20.4 60.5-15.1 57.1-14.95Q55.75-17.75 55.85-21.45L55.85-21.45Q58.3-22.7 62.07-23.75 65.84-24.8 67.59-24.8L67.59-24.8Q69.3-24.8 70.97-23.73 72.65-22.65 73.55-21.25L73.55-21.25Q74.09-20.25 74.15-17.45L74.15-17.45 74.15-4.9Q74.15-3.85 75.4-3.85L75.4-3.85 77.8-4.2ZM62.05-3.3L62.05-3.3Q64.45-3.3 68.25-4.8L68.25-4.8 68.25-8.4 66.5-8.45Q60.9-8.45 60.9-5.55L60.9-5.55Q60.9-4.1 62.05-3.3ZM105.19-23.6L105.44-21.55 102.49-20.3Q97.89-7.4 94.94-0.15L94.94-0.15Q93.44 0.35 91.09 0.35L91.09 0.35 88.34 0.15 81.14-20.25 78.24-21.05 78.29-23.6 89.74-23.6 89.99-21.55 87.49-20.5 90.89-9.65 91.64-4.8 92.69-4.8Q94.49-10.75 96.74-20.5L96.74-20.5 94.14-21.05 94.19-23.6 105.19-23.6ZM105.84-11.9L105.84-11.9Q105.84-17.5 109.17-21.05 112.49-24.6 117.54-24.6 122.59-24.6 125.82-21.03 129.04-17.45 129.04-11.65L129.04-11.65Q129.04-5.9 125.87-2.45 122.69 1 117.69 1L117.69 1Q112.54 1 109.19-2.63 105.84-6.25 105.84-11.9ZM120.24-3L120.24-3Q122.99-4.85 122.99-11.1L122.99-11.1Q122.99-15.4 121.57-18.18 120.14-20.95 117.19-20.95L117.19-20.95Q115.29-20.95 113.99-20L113.99-20Q111.94-17.45 111.94-12.25L111.94-12.25Q111.94-8.15 113.49-5.4 115.04-2.65 118.14-2.65L118.14-2.65Q119.14-2.65 120.24-3Z" fill="#f9d1d1" data-fill-palette-color="primary"></path><path d="M168.29-16.4L168.29-3.6Q170.59-3.1 171.84-2.4L171.84-2.4 171.59 0 159.84 0 159.64-1.7 162.44-2.85 162.44-14.6Q162.44-19.75 159.29-19.75L159.29-19.75Q157.14-19.75 152.99-17.1L152.99-17.1 152.99-3.55Q155.04-3 156.09-2.4L156.09-2.4 155.89 0 143.74 0 143.54-1.7Q144.74-2.35 147.14-3.1L147.14-3.1 147.14-20.35 143.39-20.4 142.89-22.8Q146.34-24.2 150.74-24.45L150.74-24.45 152.99-22.35 152.99-19.5Q159.09-23.85 162.29-24.4L162.29-24.4Q163.79-24.2 165.31-23.25 166.84-22.3 167.64-20.95L167.64-20.95Q168.24-19.85 168.29-16.4L168.29-16.4ZM197.69-4.2L198.29-2 192.74 0.8Q191.79 0.7 190.54-0.33 189.29-1.35 188.64-2.75L188.64-2.75 183.14 0.7 181.79 0.8Q178.74 0.8 176.76-1 174.79-2.8 174.79-5.35L174.79-5.35Q174.79-8.95 178.49-10.9L178.49-10.9 188.14-11.15 188.14-15.95Q188.14-19.95 185.74-21.2L185.74-21.2Q183.09-21.1 181.04-20.4L181.04-20.4 180.39-15.1 176.99-14.95Q175.64-17.75 175.74-21.45L175.74-21.45Q178.19-22.7 181.96-23.75 185.74-24.8 187.49-24.8L187.49-24.8Q189.19-24.8 190.86-23.73 192.54-22.65 193.44-21.25L193.44-21.25Q193.99-20.25 194.04-17.45L194.04-17.45 194.04-4.9Q194.04-3.85 195.29-3.85L195.29-3.85 197.69-4.2ZM181.94-3.3L181.94-3.3Q184.34-3.3 188.14-4.8L188.14-4.8 188.14-8.4 186.39-8.45Q180.79-8.45 180.79-5.55L180.79-5.55Q180.79-4.1 181.94-3.3Z" fill="#e7b386" data-fill-palette-color="accent"></path><path d="M231.09-4.35L232.44-8 235.09-7.6Q234.94-3.2 233.74 0.6L233.74 0.6 217.39-1 215.29 0.8 212.79-1.25 226.99-20.6 218.49-19.95 217.39-14.95 214.24-14.95Q213.69-17.6 213.69-20.75L213.69-20.75 213.84-23.6 231.59-23.6 233.14-24.65 235.19-22.8 221.39-4.15 231.09-4.35ZM244.38-28.3L244.38-28.3Q241.63-29.45 239.84-31.8L239.84-31.8Q241.34-34.8 243.54-36.35L243.54-36.35Q246.09-35.2 247.88-32.65L247.88-32.65Q246.74-29.85 244.38-28.3ZM247.04-22.45L247.04-3.6Q249.34-3.2 250.59-2.4L250.59-2.4 250.38 0 237.59 0 237.38-1.7Q238.84-2.45 241.19-3.15L241.19-3.15 241.19-20.35 237.44-20.4 236.94-22.8Q240.38-24.2 244.79-24.45L244.79-24.45 247.04-22.45ZM277.68-23.6L277.93-21.55 274.98-20.3Q270.38-7.4 267.43-0.15L267.43-0.15Q265.93 0.35 263.58 0.35L263.58 0.35 260.83 0.15 253.63-20.25 250.73-21.05 250.78-23.6 262.23-23.6 262.48-21.55 259.98-20.5 263.38-9.65 264.13-4.8 265.18-4.8Q266.98-10.75 269.23-20.5L269.23-20.5 266.63-21.05 266.68-23.6 277.68-23.6ZM278.33-11.9L278.33-11.9Q278.33-17.5 281.66-21.05 284.98-24.6 290.03-24.6 295.08-24.6 298.31-21.03 301.53-17.45 301.53-11.65L301.53-11.65Q301.53-5.9 298.36-2.45 295.18 1 290.18 1L290.18 1Q285.03 1 281.68-2.63 278.33-6.25 278.33-11.9ZM292.73-3L292.73-3Q295.48-4.85 295.48-11.1L295.48-11.1Q295.48-15.4 294.06-18.18 292.63-20.95 289.68-20.95L289.68-20.95Q287.78-20.95 286.48-20L286.48-20Q284.43-17.45 284.43-12.25L284.43-12.25Q284.43-8.15 285.98-5.4 287.53-2.65 290.63-2.65L290.63-2.65Q291.63-2.65 292.73-3ZM314.48-4.1L314.48-4.1Q315.83-4.1 318.88-5.05L318.88-5.05 319.53-2.65 312.48 0.8Q310.48 0.9 308.68-0.6 306.88-2.1 306.88-3.9L306.88-3.9 306.88-19.15 303.63-19.1 303.33-21.6Q305.38-22.75 307.13-23.35L307.13-23.35 309.33-29.75 312.23-29.75 312.63-23.5 319.63-23.5 319.78-21.7 317.38-19.05 312.73-19.05 312.73-6.65Q312.73-5.25 313.1-4.67 313.48-4.1 314.48-4.1Z" fill="#f9d1d1" data-fill-palette-color="primary"></path><path d="M358.68-8.85L358.68-8.85Q358.68-4.5 355.35-1.75 352.03 1 346.98 1L346.98 1Q344.13 1 340.85 0.1 337.58-0.8 335.73-2.35L335.73-2.35 335.78-2.5 335.73-4.25Q335.73-8.1 336.38-11.2L336.38-11.2 339.53-11.2 341.13-4.6Q344.28-2.7 348.63-2.7L348.63-2.7 349.73-2.75Q352.53-4.15 352.53-7.4L352.53-7.4Q352.53-10.2 349.13-12.15L349.13-12.15 341.23-16.2Q335.88-19.35 335.88-24.25L335.88-24.25Q335.88-28.45 339.33-31.08 342.78-33.7 348.13-33.7L348.13-33.7Q352.23-33.7 357.18-32.05L357.18-32.05Q357.43-27.85 356.53-23.2L356.53-23.2 353.18-23.2 352.23-28.4Q349.43-30.05 345.63-30.05L345.63-30.05 344.13-30Q341.78-28.55 341.78-25.7L341.78-25.7Q341.78-23.05 345.38-21.15L345.38-21.15 352.88-17.45Q358.68-14.2 358.68-8.85ZM385.83-4.2L386.43-2 380.88 0.8Q379.93 0.7 378.68-0.33 377.43-1.35 376.78-2.75L376.78-2.75 371.28 0.7 369.93 0.8Q366.88 0.8 364.9-1 362.93-2.8 362.93-5.35L362.93-5.35Q362.93-8.95 366.63-10.9L366.63-10.9 376.28-11.15 376.28-15.95Q376.28-19.95 373.88-21.2L373.88-21.2Q371.23-21.1 369.18-20.4L369.18-20.4 368.53-15.1 365.13-14.95Q363.78-17.75 363.88-21.45L363.88-21.45Q366.33-22.7 370.1-23.75 373.88-24.8 375.63-24.8L375.63-24.8Q377.33-24.8 379-23.73 380.68-22.65 381.58-21.25L381.58-21.25Q382.13-20.25 382.18-17.45L382.18-17.45 382.18-4.9Q382.18-3.85 383.43-3.85L383.43-3.85 385.83-4.2ZM370.08-3.3L370.08-3.3Q372.48-3.3 376.28-4.8L376.28-4.8 376.28-8.4 374.53-8.45Q368.93-8.45 368.93-5.55L368.93-5.55Q368.93-4.1 370.08-3.3ZM396.07-20.4L401.72-24.2 403.62-24.4Q407.62-24.4 410.22-21.05 412.82-17.7 412.82-12.7L412.82-12.7Q412.82-6.75 409.05-2.9 405.27 0.95 399.37 0.95L399.37 0.95Q395.17 0.95 390.17-1.15L390.17-1.15 390.22-1.2 390.22-32.65 386.47-32.75 386.02-35.15Q389.47-36.55 393.87-36.8L393.87-36.8 396.07-34.75 396.07-20.4ZM401.07-2.8L402.87-2.95Q404.67-4.15 405.7-6.53 406.72-8.9 406.72-11.55L406.72-11.55Q406.72-14.85 405.12-17.25 403.52-19.65 400.97-19.65L400.97-19.65Q399.02-19.65 396.07-17.9L396.07-17.9 396.07-4.1Q398.32-2.8 401.07-2.8L401.07-2.8ZM439.02-4.2L439.62-2 434.07 0.8Q433.12 0.7 431.87-0.33 430.62-1.35 429.97-2.75L429.97-2.75 424.47 0.7 423.12 0.8Q420.07 0.8 418.1-1 416.12-2.8 416.12-5.35L416.12-5.35Q416.12-8.95 419.82-10.9L419.82-10.9 429.47-11.15 429.47-15.95Q429.47-19.95 427.07-21.2L427.07-21.2Q424.42-21.1 422.37-20.4L422.37-20.4 421.72-15.1 418.32-14.95Q416.97-17.75 417.07-21.45L417.07-21.45Q419.52-22.7 423.3-23.75 427.07-24.8 428.82-24.8L428.82-24.8Q430.52-24.8 432.2-23.73 433.87-22.65 434.77-21.25L434.77-21.25Q435.32-20.25 435.37-17.45L435.37-17.45 435.37-4.9Q435.37-3.85 436.62-3.85L436.62-3.85 439.02-4.2ZM423.27-3.3L423.27-3.3Q425.67-3.3 429.47-4.8L429.47-4.8 429.47-8.4 427.72-8.45Q422.12-8.45 422.12-5.55L422.12-5.55Q422.12-4.1 423.27-3.3ZM460.92-2.5L453.97 0.7 453.02 0.75Q447.72 0.75 444.42-2.78 441.12-6.3 441.12-11.8L441.12-11.8Q441.12-17.35 444.47-20.98 447.82-24.6 452.92-24.6L452.92-24.6Q458.47-24.6 461.32-20.25L461.32-20.25 457.27-16.6Q453.77-20.3 449.87-21L449.87-21Q447.02-17.7 447.02-12.9L447.02-12.9Q447.02-8.75 449.04-6.15 451.07-3.55 454.67-3.55L454.67-3.55Q457.12-3.55 459.97-4.85L459.97-4.85 460.92-2.5Z" fill="#e7b386" data-fill-palette-color="accent"></path></g></svg></g></svg></g></svg></g></svg></g><g transform="matrix(1,0,0,1,413.9589685686347,0)"><svg viewBox="0 0 32.49208237744668 45.31594822239281" height="45.31594822239281" width="32.49208237744668"><g><svg xmlns="http://www.w3.org/2000/svg" xmlns:xlink="http://www.w3.org/1999/xlink" version="1.1" x="0" y="0" viewBox="11.996618568360741 0.718 70.46938143163926 98.282" enable-background="new 0 0 100 100" xml:space="preserve" height="45.31594822239281" width="32.49208237744668" class="icon-icon-0" data-fill-palette-color="accent" id="icon-0"><path d="M78.145 94.255L64.9 30.442c4.664-5.837 12.566-10.411 12.566-10.411l3.015-10.451L57.823 8.736l-1.462-8.018L34.34 53.39 22.478 90.057c-2.164-1.028-6.174-3.531-10.188-9.166 0 0-1.592 9.185 2.641 14.404C16.625 97.386 19.961 99 19.961 99h11.696H50.27h24.481c0-5.626-14.593-6.731-14.593-6.731 0-0.888-0.061-2.269-0.167-2.269h-0.163c0 0 0.033-1.654-0.617-3.688-0.02-0.062-0.037-0.264-0.059-0.324-0.034-0.104-0.074-0.284-0.114-0.393-0.388-1.052-0.86-2.067-1.403-2.976-2.237-3.713-6.753-8.108-15.88-10.865l1.422-2.558c0 0 10.452 2.241 16.018 9.799l3.149-10.657L70.141 92c0.01 0 0.021 0 0.031 0 0.101 0 7.585 2.08 7.585 7h4.709C82.466 99 81.57 95.521 78.145 94.255z" fill="#e7b386" data-fill-palette-color="accent"></path></svg></g></svg></g></svg></g></svg></g><defs></defs></svg><rect width="395.52" height="40.14631347140772" fill="none" stroke="none" visibility="hidden"></rect></g></svg></g></svg>